REM DIRINDEX 1\2\5,1\2\6,1\2\7,1\2\8,1\3\9,1\3\10,1\3\11,1\4\12,1\4\13,1\4\14,1\4\15,1\4\16
REM DIRNAME folder01,folder02,folder03,folder04,folder05,folder06,folder07,folder08,folder09,folder10,folder11,folder12,folder13,folder14,folder15,folder16
TITLE ""
FILE "1200_2_sec03_0692_0710.mp3" MP3
  TRACK 01 AUDIO
    TITLE "0:"
    INDEX 01 00:00:00
  TRACK 02 AUDIO
    TITLE "10:cjc034_01421"
    INDEX 01 00:00:21
  TRACK 03 AUDIO
    TITLE "0:"
    INDEX 01 00:01:17
  TRACK 04 AUDIO
    TITLE "9:cjc034_01422"
    INDEX 01 00:01:28
  TRACK 05 AUDIO
    TITLE "0:"
    INDEX 01 00:02:32
  TRACK 06 AUDIO
    TITLE "10:cjc034_01423"
    INDEX 01 00:03:19
  TRACK 07 AUDIO
    TITLE "0:"
    INDEX 01 00:04:33
  TRACK 08 AUDIO
    TITLE "9:cjc034_01424"
    INDEX 01 00:04:40
  TRACK 09 AUDIO
    TITLE "0:"
    INDEX 01 00:05:69
  TRACK 10 AUDIO
    TITLE "10:cjc034_01425"
    INDEX 01 00:06:49
  TRACK 11 AUDIO
    TITLE "0:"
    INDEX 01 00:09:08
  TRACK 12 AUDIO
    TITLE "9:cjc034_01426"
    INDEX 01 00:09:14
  TRACK 13 AUDIO
    TITLE "0:"
    INDEX 01 00:10:35
  TRACK 14 AUDIO
    TITLE "10:cjc034_01427"
    INDEX 01 00:11:19
  TRACK 15 AUDIO
    TITLE "0:"
    INDEX 01 00:12:28
  TRACK 16 AUDIO
    TITLE "9:cjc034_01428"
    INDEX 01 00:12:30
  TRACK 17 AUDIO
    TITLE "0:"
    INDEX 01 00:13:45
  TRACK 18 AUDIO
    TITLE "10:cjc034_01429"
    INDEX 01 00:14:29
  TRACK 19 AUDIO
    TITLE "0:"
    INDEX 01 00:15:36
  TRACK 20 AUDIO
    TITLE "9:cjc034_01430"
    INDEX 01 00:15:40
  TRACK 21 AUDIO
    TITLE "0:"
    INDEX 01 00:16:53
  TRACK 22 AUDIO
    TITLE "10:cjc034_01431"
    INDEX 01 00:17:35
  TRACK 23 AUDIO
    TITLE "0:"
    INDEX 01 00:18:27
  TRACK 24 AUDIO
    TITLE "9:cjc034_01432"
    INDEX 01 00:18:33
  TRACK 25 AUDIO
    TITLE "0:"
    INDEX 01 00:19:26
  TRACK 26 AUDIO
    TITLE "10:cjc034_01433"
    INDEX 01 00:20:14
  TRACK 27 AUDIO
    TITLE "0:"
    INDEX 01 00:22:09
  TRACK 28 AUDIO
    TITLE "9:cjc034_01434"
    INDEX 01 00:22:13
  TRACK 29 AUDIO
    TITLE "0:"
    INDEX 01 00:23:24
  TRACK 30 AUDIO
    TITLE "10:cjc034_01435"
    INDEX 01 00:24:12
  TRACK 31 AUDIO
    TITLE "0:"
    INDEX 01 00:25:03
  TRACK 32 AUDIO
    TITLE "9:cjc034_01436"
    INDEX 01 00:25:07
  TRACK 33 AUDIO
    TITLE "0:"
    INDEX 01 00:26:09
  TRACK 34 AUDIO
    TITLE "10:cjc034_01437"
    INDEX 01 00:26:67
  TRACK 35 AUDIO
    TITLE "0:"
    INDEX 01 00:28:02
  TRACK 36 AUDIO
    TITLE "9:cjc034_01438"
    INDEX 01 00:28:13
  TRACK 37 AUDIO
    TITLE "0:"
    INDEX 01 00:29:21
  TRACK 38 AUDIO
    TITLE "10:cjc034_01439"
    INDEX 01 00:30:03
  TRACK 39 AUDIO
    TITLE "0:"
    INDEX 01 00:30:65
  TRACK 40 AUDIO
    TITLE "9:cjc034_01440"
    INDEX 01 00:30:71
  TRACK 41 AUDIO
    TITLE "0:"
    INDEX 01 00:32:15
  TRACK 42 AUDIO
    TITLE "10:cjc034_01441"
    INDEX 01 00:32:72
  TRACK 43 AUDIO
    TITLE "0:"
    INDEX 01 00:33:66
  TRACK 44 AUDIO
    TITLE "9:cjc034_01442"
    INDEX 01 00:33:69
  TRACK 45 AUDIO
    TITLE "0:"
    INDEX 01 00:34:71
  TRACK 46 AUDIO
    TITLE "10:cjc034_01443"
    INDEX 01 00:35:57
  TRACK 47 AUDIO
    TITLE "0:"
    INDEX 01 00:37:03
  TRACK 48 AUDIO
    TITLE "9:cjc034_01444"
    INDEX 01 00:37:07
  TRACK 49 AUDIO
    TITLE "0:"
    INDEX 01 00:38:53
  TRACK 50 AUDIO
    TITLE "10:cjc034_01445"
    INDEX 01 00:39:37
  TRACK 51 AUDIO
    TITLE "0:"
    INDEX 01 00:41:36
  TRACK 52 AUDIO
    TITLE "9:cjc034_01446"
    INDEX 01 00:41:40
  TRACK 53 AUDIO
    TITLE "0:"
    INDEX 01 00:42:63
  TRACK 54 AUDIO
    TITLE "10:cjc034_01447"
    INDEX 01 00:43:44
  TRACK 55 AUDIO
    TITLE "0:"
    INDEX 01 00:45:24
  TRACK 56 AUDIO
    TITLE "9:cjc034_01448"
    INDEX 01 00:45:26
  TRACK 57 AUDIO
    TITLE "0:"
    INDEX 01 00:46:45
  TRACK 58 AUDIO
    TITLE "10:cjc034_01449"
    INDEX 01 00:47:27
  TRACK 59 AUDIO
    TITLE "0:"
    INDEX 01 00:49:12
  TRACK 60 AUDIO
    TITLE "9:cjc034_01450"
    INDEX 01 00:49:18
  TRACK 61 AUDIO
    TITLE "0:"
    INDEX 01 00:50:27
  TRACK 62 AUDIO
    TITLE "10:cjc034_01451"
    INDEX 01 00:51:15
  TRACK 63 AUDIO
    TITLE "0:"
    INDEX 01 00:53:09
  TRACK 64 AUDIO
    TITLE "9:cjc034_01452"
    INDEX 01 00:53:15
  TRACK 65 AUDIO
    TITLE "0:"
    INDEX 01 00:54:21
  TRACK 66 AUDIO
    TITLE "10:cjc034_01453"
    INDEX 01 00:55:03
  TRACK 67 AUDIO
    TITLE "0:"
    INDEX 01 00:56:08
  TRACK 68 AUDIO
    TITLE "9:cjc034_01454"
    INDEX 01 00:56:16
  TRACK 69 AUDIO
    TITLE "0:"
    INDEX 01 00:57:29
  TRACK 70 AUDIO
    TITLE "10:cjc034_01455"
    INDEX 01 00:58:15
  TRACK 71 AUDIO
    TITLE "0:"
    INDEX 01 01:00:62
  TRACK 72 AUDIO
    TITLE "9:cjc034_01456"
    INDEX 01 01:00:66
  TRACK 73 AUDIO
    TITLE "0:"
    INDEX 01 01:01:68
  TRACK 74 AUDIO
    TITLE "10:cjc034_01457"
    INDEX 01 01:02:55
  TRACK 75 AUDIO
    TITLE "0:"
    INDEX 01 01:03:47
  TRACK 76 AUDIO
    TITLE "9:cjc034_01458"
    INDEX 01 01:03:55
  TRACK 77 AUDIO
    TITLE "0:"
    INDEX 01 01:04:45
